# xmcd
#
# Track frame offsets: 
#        150
#        14218
#        24689
#        37501
#        53110
#        67751
#        84104
#        98740
#
# Disc length: 1457 seconds
#
# Revision: 0
# Processed by: cddbd v1.5.2PL0 Copyright (c) Steve Scherf et al.
# Submitted via: ExactAudioCopy v0.99pb4
#
DISCID=5205af08
DTITLE=Various Artist - Country Music Superstars
DYEAR=1980
DGENRE=Country
TTITLE0=Johnny Carver - Tie a Yellow Ribbon Round the Old Oak Tree
TTITLE1=Skeeter Davis - I Can't Believe That It's All Over
TTITLE2=Susan Ray - L.A. International Airport
TTITLE3=Jeannie C. Riley - Harper Valley P.T.A.
TTITLE4=Jeannie Seely - Can I Sleep In Your Arms
TTITLE5=Melba Montgomery - No Charge
TTITLE6=Nat Stuckey - Take Time To Love Her
TTITLE7=Dolly Parton - Release Me
EXTD=
EXTT0=
EXTT1=
EXTT2=
EXTT3=
EXTT4=
EXTT5=
EXTT6=
EXTT7=
PLAYORDER=
